<?xml version="1.0" encoding="UTF-8"?>
<svg id="Capa_1" data-name="Capa 1" xmlns="http://www.w3.org/2000/svg" viewBox="0 0 50 50">
  <defs>
    <style>
      .cls-1 {
        fill: #424242;
      }
    </style>
  </defs>
  <path class="cls-1" d="M50,39.73c-.34,.49-.8,.63-1.39,.63-3.09-.02-6.18,0-9.27-.01-1.01,0-1.37-.37-1.37-1.39,0-3.09,0-6.18,0-9.27,0-1.03,.38-1.41,1.42-1.41,1.01,0,2.02-.01,3.02,0,.39,0,.56-.1,.54-.52-.03-.62-.03-1.24,0-1.85,.02-.38-.12-.51-.5-.5-1.56,.02-3.12,0-4.68,0-3.68,0-7.35,0-11.03-.01-.49,0-.68,.12-.64,.63,.04,.53,0,1.07,0,1.61q0,.63,.66,.63c.96,0,1.92,0,2.88,0,1.03,0,1.43,.4,1.44,1.46,0,2.02,0,4.03,0,6.05,0,1.06,0,2.11,0,3.17,0,1-.41,1.39-1.39,1.39-3.12,0-6.24,0-9.37,0-.93,0-1.36-.39-1.36-1.32-.01-3.14-.01-6.28,0-9.42,0-.92,.44-1.32,1.37-1.33,1.04,0,2.08-.01,3.12,0,.36,0,.5-.12,.49-.48-.02-.63-.02-1.27,0-1.9,0-.35-.1-.49-.47-.49-5.3,0-10.6,0-15.91,0-.37,0-.48,.14-.47,.49,.02,.63,.02,1.27,0,1.9-.01,.36,.11,.49,.48,.48,1.07-.02,2.15-.01,3.22,0,.87,0,1.28,.42,1.28,1.29,0,3.15,0,6.31,0,9.46,0,.92-.39,1.31-1.31,1.31-3.15,0-6.31,0-9.46,0-.93,0-1.29-.37-1.29-1.31,0-3.15,0-6.31,0-9.46,0-.89,.38-1.28,1.27-1.29,1.06,0,2.11-.02,3.17,0,.39,0,.55-.11,.54-.52-.02-1.01,0-2.02,0-3.02,0-1.12,.33-1.44,1.46-1.44,5.59,0,11.19,0,16.78,0q.71,0,.71-.68c0-.36-.02-.72,0-1.07,.03-.43-.14-.57-.56-.56-2.08,.02-4.16,0-6.24,0-.2,0-.39,0-.58-.01-.85-.08-1.21-.47-1.21-1.33,0-2.91,0-5.82,0-8.73,0-.89,.4-1.27,1.29-1.27,5.59,0,11.19,0,16.78,0,.92,0,1.3,.38,1.3,1.31,0,2.86,0,5.72,0,8.59,0,1.04-.39,1.45-1.44,1.45-2.11,.01-4.23,0-6.34,0q-.82,0-.82,.83c0,.34,.01,.68,0,1.02-.02,.33,.11,.47,.45,.46,.5-.02,1.01,0,1.51,0,5.17,0,10.34,0,15.51,0,1.16,0,1.48,.32,1.48,1.47,0,.99,.02,1.98,0,2.98,0,.4,.11,.55,.52,.54,.99-.02,1.98,.01,2.98-.02,.6-.02,1.09,.13,1.45,.62v10.83ZM24.97,18.82c2.37,0,4.75,0,7.12,0,.38,0,.51-.12,.51-.5-.01-2.02-.02-4.03,0-6.05,0-.4-.13-.53-.53-.53-4.7,.01-9.4,.01-14.09,0-.4,0-.54,.12-.53,.52,.02,2,.02,4,0,6,0,.43,.13,.56,.56,.55,2.32-.02,4.65,0,6.97,0Zm22.95,15.53c0-1.14-.02-2.27,0-3.41,.01-.44-.15-.55-.56-.55-2.24,.02-4.48,.02-6.72,0-.43,0-.56,.13-.56,.56,.02,2.26,.01,4.52,0,6.77,0,.37,.09,.52,.49,.51,2.29-.02,4.58-.01,6.87,0,.36,0,.48-.12,.48-.48-.02-1.14,0-2.27,0-3.41Zm-41.93,3.88c1.11,0,2.21-.02,3.32,0,.44,.01,.6-.11,.6-.57-.02-2.24-.01-4.49,0-6.73,0-.39-.12-.55-.53-.54-2.26,.02-4.52,.01-6.78,0-.35,0-.49,.1-.48,.47,.01,2.29,.01,4.58,0,6.88,0,.4,.14,.5,.51,.49,1.12-.02,2.24,0,3.36,0Zm15.14-3.92c0,1.14,.01,2.28,0,3.41,0,.37,.09,.52,.49,.52,2.26-.02,4.52-.01,6.78,0,.38,0,.51-.11,.51-.5-.01-2.27-.01-4.55,0-6.82,0-.37-.09-.52-.49-.52-2.26,.01-4.52,.01-6.78,0-.38,0-.52,.11-.51,.5,.02,1.14,0,2.27,0,3.41Z"/>
</svg>